# xmcd
# 
# Track frame offsets:
#     150
#     12572
#     28106
#     43702
#     61010
#     75297
#     89652
#     105732
#     119045
#     134542
#     151497
# 
# Disc length: 2289
# 
# Revision: 3
# Processed by: cddbd v1.5.2PL0 Copyright (c) Steve Scherf et al.
# Submitted via: fre:ac v1.0.31
# 
DISCID=9008ef0b
DTITLE=Various Artist - Eagle When She Files
DYEAR=1991
DGENRE=Folk/Country
TTITLE0=Dolly Parton - If You Need Me
TTITLE1=Dolly Parton and Ricky Van Shelton - Rockin' Years
TTITLE2=Dolly Parton - Country Road
TTITLE3=Dolly Parton - Silver and Gold
TTITLE4=Dolly Parton - Eagle When She Flies
TTITLE5=Dolly Parton and Lorrie Morgan - Best Woman Wins
TTITLE6=Dolly Parton - What a Heartache
TTITLE7=Dolly Parton - Runaway Feelin'
TTITLE8=Dolly Parton - Dreams Do Come True
TTITLE9=Dolly Parton - Family
TTITLE10=Dolly Parton - Wildest Dreams
EXTD=YEAR: 1991
EXTT0=
EXTT1=
EXTT2=
EXTT3=
EXTT4=
EXTT5=
EXTT6=
EXTT7=
EXTT8=
EXTT9=
EXTT10=
PLAYORDER=
